<?xml version="1.0" encoding="UTF-8" standalone="no"?>
<!-- Created with Inkscape (http://www.inkscape.org/) -->

<svg
   xmlns:dc="http://purl.org/dc/elements/1.1/"
   xmlns:cc="http://creativecommons.org/ns#"
   xmlns:rdf="http://www.w3.org/1999/02/22-rdf-syntax-ns#"
   xmlns:svg="http://www.w3.org/2000/svg"
   xmlns="http://www.w3.org/2000/svg"
   xmlns:sodipodi="http://sodipodi.sourceforge.net/DTD/sodipodi-0.dtd"
   xmlns:inkscape="http://www.inkscape.org/namespaces/inkscape"
   width="152.65369mm"
   height="103.06097mm"
   viewBox="0 0 152.65369 103.06097"
   version="1.1"
   id="svg1733"
   inkscape:version="0.92.3 (2405546, 2018-03-11)">
  <defs
     id="defs1727" />
  <sodipodi:namedview
     id="base"
     pagecolor="#ffffff"
     bordercolor="#666666"
     borderopacity="1.0"
     inkscape:pageopacity="0.0"
     inkscape:pageshadow="2"
     inkscape:zoom="0.35"
     inkscape:cx="271.33653"
     inkscape:cy="197.61803"
     inkscape:document-units="mm"
     inkscape:current-layer="layer1"
     showgrid="false"
     fit-margin-top="0"
     fit-margin-left="0"
     fit-margin-right="0"
     fit-margin-bottom="0"
     inkscape:pagecheckerboard="false"
     inkscape:window-width="1270"
     inkscape:window-height="1373"
     inkscape:window-x="3840"
     inkscape:window-y="26"
     inkscape:window-maximized="0" />
  <metadata
     id="metadata1730">
    <rdf:RDF>
      <cc:Work
         rdf:about="">
        <dc:format>image/svg+xml</dc:format>
        <dc:type
           rdf:resource="http://purl.org/dc/dcmitype/StillImage" />
        <dc:title></dc:title>
      </cc:Work>
    </rdf:RDF>
  </metadata>
  <g
     inkscape:label="Layer 1"
     inkscape:groupmode="layer"
     id="layer1"
     transform="translate(-34.04221,-98.058801)">
    <path
       d="m 121.61086,133.9858 c 0,17.79199 -14.42226,32.21461 -32.21426,32.21461 -17.79058,0 -32.21425,-14.42262 -32.21425,-32.21461 0,-17.79023 14.42367,-32.21426 32.21425,-32.21426 17.792,0 32.21426,14.42403 32.21426,32.21426 z"
       style="fill:none;stroke:#000000;stroke-width:7.42547798;stroke-linecap:butt;stroke-linejoin:miter;stroke-miterlimit:4;stroke-dasharray:none;stroke-opacity:1"
       id="path14"
       inkscape:connector-curvature="0" />
    <path
       d="m 111.74154,157.02395 17.50942,17.20074"
       style="fill:none;stroke:#000000;stroke-width:7.398067;stroke-linecap:butt;stroke-linejoin:miter;stroke-miterlimit:4;stroke-dasharray:none;stroke-opacity:1"
       id="path16"
       inkscape:connector-curvature="0" />
    <path
       d="m 156.13087,190.71564 c 0,0 -15.72895,-15.5829 -21.78685,-21.73852 -3.02895,-3.07693 -4.0954,-4.54872 -5.94466,-4.55718 -2.26025,-0.0109 -2.77566,1.14935 -5.5245,3.94546 -2.7492,2.79612 -3.95394,3.21346 -3.82411,5.58518 0.11571,2.09585 1.65488,2.93229 4.71134,6.02051 6.37893,6.44666 21.1448,21.12398 21.1448,21.12398 l 1.82986,0.0247 9.3666,-9.12108 z"
       style="fill:#000000;fill-opacity:1;fill-rule:evenodd;stroke:none;stroke-width:0.03527778"
       id="path18"
       inkscape:connector-curvature="0" />
    <path
       d="m 42.03622,159.69624 h -7.99401 v -49.31198 h 27.82672 v 6.81461 H 42.03622 v 15.41321 h 18.58433 v 6.84742 H 42.03622 Z"
       style="fill:#000000;fill-opacity:1;fill-rule:nonzero;stroke:none;stroke-width:0.03527778"
       id="path20"
       inkscape:connector-curvature="0" />
    <path
       d="m 148.64951,146.30586 c 0,4.38467 -1.58468,7.82567 -4.75545,10.32122 -3.17111,2.4959 -7.54485,3.74438 -13.12051,3.74438 -5.57671,0 -10.14095,-0.86536 -13.69483,-2.59786 v -7.62176 c 2.24896,1.05692 4.63303,1.88771 7.15045,2.49555 2.54106,0.60643 4.90326,0.91087 7.08307,0.91087 3.193,0 5.54391,-0.60783 7.05027,-1.82174 1.52823,-1.21391 2.29306,-2.8441 2.29306,-4.89056 0,-1.84397 -0.69744,-3.40642 -2.09057,-4.68806 -1.39452,-1.28165 -4.27319,-2.80035 -8.63459,-4.55331 -4.49791,-1.82174 -7.66762,-3.90242 -9.51124,-6.24099 -1.84538,-2.33856 -2.76719,-5.14844 -2.76719,-8.43209 0,-4.1148 1.46191,-7.35189 4.38468,-9.71374 2.92452,-2.36079 6.84777,-3.54153 11.7729,-3.54153 4.72087,0 9.42164,1.03469 14.09841,3.10303 l -2.56434,6.57754 c -4.38503,-1.84397 -8.29733,-2.76578 -11.73692,-2.76578 -2.60844,0 -4.58752,0.57327 -5.93654,1.71979 -1.34903,1.12466 -2.02424,2.61973 -2.02424,4.48698 0,1.28165 0.27023,2.38267 0.81033,3.30447 0.53869,0.89994 1.42769,1.75437 2.66382,2.56329 1.23719,0.81033 3.46287,1.87819 6.67915,3.20534 3.6202,1.506 6.27274,2.91147 7.95972,4.21534 1.68663,1.30492 2.92276,2.77671 3.70946,4.41925 0.78705,1.64112 1.1811,3.57469 1.1811,5.80037 z"
       style="fill:#000000;fill-opacity:1;fill-rule:nonzero;stroke:none;stroke-width:0.03527778"
       id="path22"
       inkscape:connector-curvature="0" />
    <path
       d="m 186.69589,146.30586 c 0,4.38467 -1.58503,7.82567 -4.7558,10.32122 -3.17077,2.4959 -7.54486,3.74438 -13.12016,3.74438 -5.57706,0 -10.14095,-0.86536 -13.69518,-2.59786 v -7.62176 c 2.24895,1.05692 4.63303,1.88771 7.1508,2.49555 2.54106,0.60643 4.90291,0.91087 7.08307,0.91087 3.19299,0 5.54391,-0.60783 7.05027,-1.82174 1.52823,-1.21391 2.29305,-2.8441 2.29305,-4.89056 0,-1.84397 -0.69744,-3.40642 -2.09056,-4.68806 -1.39453,-1.28165 -4.27355,-2.80035 -8.63494,-4.55331 -4.49792,-1.82174 -7.66727,-3.90242 -9.51124,-6.24099 -1.84362,-2.33856 -2.76578,-5.14844 -2.76578,-8.43209 0,-4.1148 1.46085,-7.35189 4.38362,-9.71374 2.92417,-2.36079 6.84741,-3.54153 11.77255,-3.54153 4.72122,0 9.42163,1.03469 14.09876,3.10303 l -2.56434,6.57754 c -4.38362,-1.84397 -8.29734,-2.76578 -11.73692,-2.76578 -2.60879,0 -4.58752,0.57327 -5.93654,1.71979 -1.34903,1.12466 -2.02424,2.61973 -2.02424,4.48698 0,1.28165 0.26987,2.38267 0.81033,3.30447 0.53869,0.89994 1.42734,1.75437 2.66347,2.56329 1.23754,0.81033 3.46322,1.87819 6.67949,3.20534 3.62021,1.506 6.27275,2.91147 7.95937,4.21534 1.68699,1.30492 2.92312,2.77671 3.70982,4.41925 0.7881,1.64112 1.1811,3.57469 1.1811,5.80037 z"
       style="fill:#000000;fill-opacity:1;fill-rule:nonzero;stroke:none;stroke-width:0.03527778"
       id="path24"
       inkscape:connector-curvature="0" />
    <path
       d="m 90.66166,137.11141 c 0,1.77483 -0.45614,3.16124 -1.36701,4.15608 -0.91228,0.99659 -2.17734,1.49401 -3.79801,1.49401 -1.01423,0 -1.91135,-0.22895 -2.68993,-0.68898 -0.77999,-0.45896 -1.37795,-1.11654 -1.79669,-1.97343 -0.4191,-0.85584 -0.62865,-1.85209 -0.62865,-2.98768 0,-1.75966 0.44944,-3.13372 1.35043,-4.12291 0.90417,-0.98813 2.17734,-1.48308 3.82023,-1.48308 1.57233,0 2.81658,0.50729 3.73168,1.52153 0.91758,1.01141 1.37795,2.37278 1.37795,4.08446 z m -7.90434,0 c 0,2.51072 0.92605,3.76484 2.77813,3.76484 1.83268,0 2.75061,-1.25412 2.75061,-3.76484 0,-2.48038 -0.92463,-3.72075 -2.77284,-3.72075 -0.96731,0 -1.66864,0.32244 -2.10573,0.96485 -0.43391,0.63923 -0.65017,1.55857 -0.65017,2.7559 z"
       style="fill:#000000;fill-opacity:1;fill-rule:nonzero;stroke:none;stroke-width:0.03527778"
       id="path26"
       inkscape:connector-curvature="0" />
    <path
       d="m 98.975223,131.50542 c 1.351847,0 2.406297,0.49353 3.164067,1.47743 0.75671,0.98108 1.13559,2.35797 1.13559,4.12856 0,1.78329 -0.38453,3.16936 -1.15217,4.16172 -0.76483,0.99201 -1.82704,1.48837 -3.185939,1.48837 -1.37795,0 -2.446163,-0.49354 -3.202516,-1.48273 h -0.159809 l -0.4191,1.28412 H 93.42462 v -15.27952 h 2.309635 v 3.63256 c 0,0.26846 -0.01376,0.66957 -0.03845,1.20156 -0.02646,0.52916 -0.04692,0.86536 -0.06068,1.00859 h 0.09913 c 0.73025,-1.08021 1.810808,-1.62066 3.240968,-1.62066 z m -0.600781,1.88524 c -0.929921,0 -1.601259,0.27446 -2.011892,0.82127 -0.40781,0.54857 -0.61736,1.46367 -0.628295,2.74532 v 0.15416 c 0,1.32292 0.20955,2.28212 0.628295,2.87726 0.4191,0.59266 1.102431,0.88758 2.050698,0.88758 0.818444,0 1.44004,-0.32243 1.863022,-0.97013 0.42157,-0.65053 0.63394,-1.5875 0.63394,-2.81129 0,-2.46944 -0.84631,-3.70417 -2.535768,-3.70417 z"
       style="fill:#000000;fill-opacity:1;fill-rule:nonzero;stroke:none;stroke-width:0.03527778"
       id="path28"
       inkscape:connector-curvature="0" />
    <path
       d="m 113.35797,139.47079 c 0,1.05833 -0.38876,1.87254 -1.16311,2.44157 -0.77152,0.56656 -1.87819,0.84914 -3.31823,0.84914 -1.44427,0 -2.60596,-0.22049 -3.48367,-0.66146 v -1.99002 c 1.27458,0.58843 2.4638,0.88195 3.56622,0.88195 1.41817,0 2.12761,-0.42722 2.12761,-1.28447 0,-0.27552 -0.0797,-0.50412 -0.23672,-0.68897 -0.15451,-0.18309 -0.41204,-0.37183 -0.77187,-0.56762 -0.36089,-0.19862 -0.86254,-0.42016 -1.50495,-0.66711 -1.24989,-0.48506 -2.09444,-0.97013 -2.53542,-1.4552 -0.44097,-0.48507 -0.66146,-1.11337 -0.66146,-1.8849 0,-0.92886 0.37219,-1.651 1.11902,-2.1664 0.74965,-0.514 1.76918,-0.77188 3.05928,-0.77188 1.27882,0 2.48709,0.25929 3.62691,0.77752 l -0.74965,1.73602 c -1.17263,-0.48507 -2.15794,-0.72743 -2.95451,-0.72743 -1.21674,0 -1.82457,0.34714 -1.82457,1.04176 0,0.34184 0.15699,0.63111 0.47413,0.86536 0.31962,0.23565 1.01142,0.5595 2.07786,0.97014 0.89571,0.34995 1.54623,0.66992 1.95157,0.9592 0.40781,0.28646 0.70802,0.61736 0.90382,0.99201 0.19861,0.375 0.29774,0.8255 0.29774,1.35079 z"
       style="fill:#000000;fill-opacity:1;fill-rule:nonzero;stroke:none;stroke-width:0.03527778"
       id="path30"
       inkscape:connector-curvature="0" />
    <path
       d="m 69.47983,136.06119 c 0.60219,-0.17886 1.19203,0.21943 1.76953,1.19627 1.1243,1.81222 1.8161,2.67899 2.07786,2.60174 0.20144,-0.0579 0.36654,-0.28787 0.49636,-0.68898 2.4391,-8.74218 4.91808,-15.96319 7.43585,-21.66267 0.65017,-1.47743 2.01718,-2.52201 4.10104,-3.13655 0.49177,-0.14323 0.83503,-0.18873 1.03082,-0.13793 0.19403,0.0483 0.31115,0.14746 0.35278,0.29774 0.0579,0.23142 -0.0815,0.76341 -0.4191,1.59315 -3.99909,9.4562 -7.45667,19.21263 -10.37379,29.26961 -0.20672,0.70274 -0.85442,1.21532 -1.94592,1.53776 -1.11054,0.32809 -1.77906,0.47131 -2.00625,0.43004 -0.58843,-0.0952 -1.52682,-1.18251 -2.81693,-3.2632 -1.45235,-2.30681 -2.25852,-3.78283 -2.41973,-4.4263 -0.17639,-0.69744 0.19307,-1.52823 1.10807,-2.49167 0.56487,-0.59796 1.10243,-0.97155 1.60941,-1.11901 z"
       style="fill:#000000;fill-opacity:1;fill-rule:nonzero;stroke:none;stroke-width:0.03527778"
       id="path32"
       inkscape:connector-curvature="0" />
  </g>
</svg>
